<svg width="19" height="20" viewBox="0 0 19 20" fill="none" xmlns="http://www.w3.org/2000/svg">
<g clip-path="url(#clip0_1_49)">
<path d="M17.8561 11.5847L16.3519 6.17288C15.911 4.58743 14.9528 3.19485 13.6296 2.2165C12.3065 1.23814 10.6942 0.730158 9.04916 0.773288C7.40412 0.816418 5.8207 1.40819 4.5506 2.45454C3.28049 3.50088 2.39658 4.94176 2.03938 6.54813L0.874838 11.785C0.746205 12.3637 0.749179 12.9638 0.883541 13.5412C1.0179 14.1185 1.28022 14.6583 1.65113 15.1207C2.02204 15.5831 2.49207 15.9563 3.02652 16.2128C3.56096 16.4692 4.14618 16.6023 4.73896 16.6023H5.62088C5.80258 17.4971 6.28804 18.3016 6.99501 18.8794C7.70198 19.4573 8.58697 19.7729 9.50005 19.7729C10.4131 19.7729 11.2981 19.4573 12.0051 18.8794C12.7121 18.3016 13.1975 17.4971 13.3792 16.6023H14.0426C14.6529 16.6023 15.2548 16.4613 15.8015 16.1902C16.3482 15.9191 16.8248 15.5252 17.1941 15.0394C17.5634 14.5536 17.8154 13.989 17.9303 13.3897C18.0453 12.7904 18.0202 12.1727 17.8569 11.5847H17.8561ZM9.50005 18.1856C9.01059 18.1836 8.53372 18.0304 8.13466 17.747C7.73561 17.4636 7.43386 17.0638 7.27071 16.6023H11.7294C11.5662 17.0638 11.2645 17.4636 10.8654 17.747C10.4664 18.0304 9.9895 18.1836 9.50005 18.1856ZM15.9331 14.0808C15.7125 14.3735 15.4267 14.6107 15.0984 14.7735C14.7701 14.9364 14.4083 15.0204 14.0418 15.019H4.73896C4.38333 15.0189 4.03226 14.939 3.71165 14.7851C3.39104 14.6312 3.10908 14.4073 2.88659 14.1298C2.6641 13.8524 2.50675 13.5285 2.42616 13.1822C2.34557 12.8358 2.34379 12.4757 2.42096 12.1286L3.58471 6.89092C3.86524 5.62917 4.5595 4.4974 5.55712 3.67552C6.55473 2.85365 7.79846 2.38885 9.09058 2.355C10.3827 2.32115 11.649 2.7202 12.6883 3.48871C13.7276 4.25722 14.4802 5.35108 14.8264 6.59642L16.3305 12.0083C16.4299 12.3608 16.4458 12.7317 16.3768 13.0915C16.3078 13.4513 16.1559 13.79 15.9331 14.0808Z" fill="#838DA6"/>
</g>
<defs>
<clipPath id="clip0_1_49">
<rect width="19" height="19" fill="white" transform="translate(0 0.768951)"/>
</clipPath>
</defs>
</svg>
